# https://github.com/mikedh/trimesh
v 0.00000000 0.00000000 -0.50000000
v 1.00000000 0.00000000 -0.50000000
v 1.00000000 0.00000000 0.50000000
v 0.00000000 0.00000000 0.50000000
v 0.99518473 0.09801714 -0.50000000
v 0.99518473 0.09801714 0.50000000
v 0.98078528 0.19509032 -0.50000000
v 0.98078528 0.19509032 0.50000000
v 0.95694034 0.29028468 -0.50000000
v 0.95694034 0.29028468 0.50000000
v 0.92387953 0.38268343 -0.50000000
v 0.92387953 0.38268343 0.50000000
v 0.88192126 0.47139674 -0.50000000
v 0.88192126 0.47139674 0.50000000
v 0.83146961 0.55557023 -0.50000000
v 0.83146961 0.55557023 0.50000000
v 0.77301045 0.63439328 -0.50000000
v 0.77301045 0.63439328 0.50000000
v 0.70710678 0.70710678 -0.50000000
v 0.70710678 0.70710678 0.50000000
v 0.63439328 0.77301045 -0.50000000
v 0.63439328 0.77301045 0.50000000
v 0.55557023 0.83146961 -0.50000000
v 0.55557023 0.83146961 0.50000000
v 0.47139674 0.88192126 -0.50000000
v 0.47139674 0.88192126 0.50000000
v 0.38268343 0.92387953 -0.50000000
v 0.38268343 0.92387953 0.50000000
v 0.29028468 0.95694034 -0.50000000
v 0.29028468 0.95694034 0.50000000
v 0.19509032 0.98078528 -0.50000000
v 0.19509032 0.98078528 0.50000000
v 0.09801714 0.99518473 -0.50000000
v 0.09801714 0.99518473 0.50000000
v 0.00000000 1.00000000 -0.50000000
v 0.00000000 1.00000000 0.50000000
v -0.09801714 0.99518473 -0.50000000
v -0.09801714 0.99518473 0.50000000
v -0.19509032 0.98078528 -0.50000000
v -0.19509032 0.98078528 0.50000000
v -0.29028468 0.95694034 -0.50000000
v -0.29028468 0.95694034 0.50000000
v -0.38268343 0.92387953 -0.50000000
v -0.38268343 0.92387953 0.50000000
v -0.47139674 0.88192126 -0.50000000
v -0.47139674 0.88192126 0.50000000
v -0.55557023 0.83146961 -0.50000000
v -0.55557023 0.83146961 0.50000000
v -0.63439328 0.77301045 -0.50000000
v -0.63439328 0.77301045 0.50000000
v -0.70710678 0.70710678 -0.50000000
v -0.70710678 0.70710678 0.50000000
v -0.77301045 0.63439328 -0.50000000
v -0.77301045 0.63439328 0.50000000
v -0.83146961 0.55557023 -0.50000000
v -0.83146961 0.55557023 0.50000000
v -0.88192126 0.47139674 -0.50000000
v -0.88192126 0.47139674 0.50000000
v -0.92387953 0.38268343 -0.50000000
v -0.92387953 0.38268343 0.50000000
v -0.95694034 0.29028468 -0.50000000
v -0.95694034 0.29028468 0.50000000
v -0.98078528 0.19509032 -0.50000000
v -0.98078528 0.19509032 0.50000000
v -0.99518473 0.09801714 -0.50000000
v -0.99518473 0.09801714 0.50000000
v -1.00000000 0.00000000 -0.50000000
v -1.00000000 0.00000000 0.50000000
v -0.99518473 -0.09801714 -0.50000000
v -0.99518473 -0.09801714 0.50000000
v -0.98078528 -0.19509032 -0.50000000
v -0.98078528 -0.19509032 0.50000000
v -0.95694034 -0.29028468 -0.50000000
v -0.95694034 -0.29028468 0.50000000
v -0.92387953 -0.38268343 -0.50000000
v -0.92387953 -0.38268343 0.50000000
v -0.88192126 -0.47139674 -0.50000000
v -0.88192126 -0.47139674 0.50000000
v -0.83146961 -0.55557023 -0.50000000
v -0.83146961 -0.55557023 0.50000000
v -0.77301045 -0.63439328 -0.50000000
v -0.77301045 -0.63439328 0.50000000
v -0.70710678 -0.70710678 -0.50000000
v -0.70710678 -0.70710678 0.50000000
v -0.63439328 -0.77301045 -0.50000000
v -0.63439328 -0.77301045 0.50000000
v -0.55557023 -0.83146961 -0.50000000
v -0.55557023 -0.83146961 0.50000000
v -0.47139674 -0.88192126 -0.50000000
v -0.47139674 -0.88192126 0.50000000
v -0.38268343 -0.92387953 -0.50000000
v -0.38268343 -0.92387953 0.50000000
v -0.29028468 -0.95694034 -0.50000000
v -0.29028468 -0.95694034 0.50000000
v -0.19509032 -0.98078528 -0.50000000
v -0.19509032 -0.98078528 0.50000000
v -0.09801714 -0.99518473 -0.50000000
v -0.09801714 -0.99518473 0.50000000
v -0.00000000 -1.00000000 -0.50000000
v -0.00000000 -1.00000000 0.50000000
v 0.09801714 -0.99518473 -0.50000000
v 0.09801714 -0.99518473 0.50000000
v 0.19509032 -0.98078528 -0.50000000
v 0.19509032 -0.98078528 0.50000000
v 0.29028468 -0.95694034 -0.50000000
v 0.29028468 -0.95694034 0.50000000
v 0.38268343 -0.92387953 -0.50000000
v 0.38268343 -0.92387953 0.50000000
v 0.47139674 -0.88192126 -0.50000000
v 0.47139674 -0.88192126 0.50000000
v 0.55557023 -0.83146961 -0.50000000
v 0.55557023 -0.83146961 0.50000000
v 0.63439328 -0.77301045 -0.50000000
v 0.63439328 -0.77301045 0.50000000
v 0.70710678 -0.70710678 -0.50000000
v 0.70710678 -0.70710678 0.50000000
v 0.77301045 -0.63439328 -0.50000000
v 0.77301045 -0.63439328 0.50000000
v 0.83146961 -0.55557023 -0.50000000
v 0.83146961 -0.55557023 0.50000000
v 0.88192126 -0.47139674 -0.50000000
v 0.88192126 -0.47139674 0.50000000
v 0.92387953 -0.38268343 -0.50000000
v 0.92387953 -0.38268343 0.50000000
v 0.95694034 -0.29028468 -0.50000000
v 0.95694034 -0.29028468 0.50000000
v 0.98078528 -0.19509032 -0.50000000
v 0.98078528 -0.19509032 0.50000000
v 0.99518473 -0.09801714 -0.50000000
v 0.99518473 -0.09801714 0.50000000
f 2 1 5
f 2 5 3
f 3 5 6
f 3 6 4
f 5 1 7
f 5 7 6
f 6 7 8
f 6 8 4
f 7 1 9
f 7 9 8
f 8 9 10
f 8 10 4
f 9 1 11
f 9 11 10
f 10 11 12
f 10 12 4
f 11 1 13
f 11 13 12
f 12 13 14
f 12 14 4
f 13 1 15
f 13 15 14
f 14 15 16
f 14 16 4
f 15 1 17
f 15 17 16
f 16 17 18
f 16 18 4
f 17 1 19
f 17 19 18
f 18 19 20
f 18 20 4
f 19 1 21
f 19 21 20
f 20 21 22
f 20 22 4
f 21 1 23
f 21 23 22
f 22 23 24
f 22 24 4
f 23 1 25
f 23 25 24
f 24 25 26
f 24 26 4
f 25 1 27
f 25 27 26
f 26 27 28
f 26 28 4
f 27 1 29
f 27 29 28
f 28 29 30
f 28 30 4
f 29 1 31
f 29 31 30
f 30 31 32
f 30 32 4
f 31 1 33
f 31 33 32
f 32 33 34
f 32 34 4
f 33 1 35
f 33 35 34
f 34 35 36
f 34 36 4
f 35 1 37
f 35 37 36
f 36 37 38
f 36 38 4
f 37 1 39
f 37 39 38
f 38 39 40
f 38 40 4
f 39 1 41
f 39 41 40
f 40 41 42
f 40 42 4
f 41 1 43
f 41 43 42
f 42 43 44
f 42 44 4
f 43 1 45
f 43 45 44
f 44 45 46
f 44 46 4
f 45 1 47
f 45 47 46
f 46 47 48
f 46 48 4
f 47 1 49
f 47 49 48
f 48 49 50
f 48 50 4
f 49 1 51
f 49 51 50
f 50 51 52
f 50 52 4
f 51 1 53
f 51 53 52
f 52 53 54
f 52 54 4
f 53 1 55
f 53 55 54
f 54 55 56
f 54 56 4
f 55 1 57
f 55 57 56
f 56 57 58
f 56 58 4
f 57 1 59
f 57 59 58
f 58 59 60
f 58 60 4
f 59 1 61
f 59 61 60
f 60 61 62
f 60 62 4
f 61 1 63
f 61 63 62
f 62 63 64
f 62 64 4
f 63 1 65
f 63 65 64
f 64 65 66
f 64 66 4
f 65 1 67
f 65 67 66
f 66 67 68
f 66 68 4
f 67 1 69
f 67 69 68
f 68 69 70
f 68 70 4
f 69 1 71
f 69 71 70
f 70 71 72
f 70 72 4
f 71 1 73
f 71 73 72
f 72 73 74
f 72 74 4
f 73 1 75
f 73 75 74
f 74 75 76
f 74 76 4
f 75 1 77
f 75 77 76
f 76 77 78
f 76 78 4
f 77 1 79
f 77 79 78
f 78 79 80
f 78 80 4
f 79 1 81
f 79 81 80
f 80 81 82
f 80 82 4
f 81 1 83
f 81 83 82
f 82 83 84
f 82 84 4
f 83 1 85
f 83 85 84
f 84 85 86
f 84 86 4
f 85 1 87
f 85 87 86
f 86 87 88
f 86 88 4
f 87 1 89
f 87 89 88
f 88 89 90
f 88 90 4
f 89 1 91
f 89 91 90
f 90 91 92
f 90 92 4
f 91 1 93
f 91 93 92
f 92 93 94
f 92 94 4
f 93 1 95
f 93 95 94
f 94 95 96
f 94 96 4
f 95 1 97
f 95 97 96
f 96 97 98
f 96 98 4
f 97 1 99
f 97 99 98
f 98 99 100
f 98 100 4
f 99 1 101
f 99 101 100
f 100 101 102
f 100 102 4
f 101 1 103
f 101 103 102
f 102 103 104
f 102 104 4
f 103 1 105
f 103 105 104
f 104 105 106
f 104 106 4
f 105 1 107
f 105 107 106
f 106 107 108
f 106 108 4
f 107 1 109
f 107 109 108
f 108 109 110
f 108 110 4
f 109 1 111
f 109 111 110
f 110 111 112
f 110 112 4
f 111 1 113
f 111 113 112
f 112 113 114
f 112 114 4
f 113 1 115
f 113 115 114
f 114 115 116
f 114 116 4
f 115 1 117
f 115 117 116
f 116 117 118
f 116 118 4
f 117 1 119
f 117 119 118
f 118 119 120
f 118 120 4
f 119 1 121
f 119 121 120
f 120 121 122
f 120 122 4
f 121 1 123
f 121 123 122
f 122 123 124
f 122 124 4
f 123 1 125
f 123 125 124
f 124 125 126
f 124 126 4
f 125 1 127
f 125 127 126
f 126 127 128
f 126 128 4
f 127 1 129
f 127 129 128
f 128 129 130
f 128 130 4
f 129 1 2
f 129 2 130
f 130 2 3
f 130 3 4

